# xmcd
#
# Track frame offsets: 
#        150
#        13376
#        23650
#        39142
#        55560
#        68360
#        82723
#        98213
#        109209
#        124889
#        140122
#        158679
#        178268
#        197966
#        211036
#
# Disc length: 3038 seconds
#
# Revision: 0
# Processed by: cddbd v1.4PL0 Copyright (c) Steve Scherf et al.
# Submitted via: ExactAudioCopy v0.90b4
#
DISCID=c00bdc0f
DTITLE=Brian Evans - Singing in The Rain
DYEAR=2001
DGENRE=
TTITLE0=Singing in The Rain
TTITLE1=Why Should I Cry Over You
TTITLE2=Smile
TTITLE3=Funny Familiar Forgotten Fellings
TTITLE4=Love and Marriage
TTITLE5=I Won't Dance
TTITLE6=You
TTITLE7=There You Are
TTITLE8=Beyond the Sea
TTITLE9=The Love We Had
TTITLE10=I'm Gonna Sit Right Down
TTITLE11=What Kind of Fool Am I
TTITLE12=Family Doesn't Know Me
TTITLE13=Momma
TTITLE14=New York, New York
EXTD=
EXTT0=
EXTT1=
EXTT2=
EXTT3=
EXTT4=
EXTT5=
EXTT6=
EXTT7=
EXTT8=
EXTT9=
EXTT10=
EXTT11=
EXTT12=
EXTT13=
EXTT14=
PLAYORDER=
